<svg width="16" height="14" viewBox="0 0 16 14" fill="none" xmlns="http://www.w3.org/2000/svg">
<path d="M15.1509 6.0774L9.33376 0.244062C9.00925 -0.0813542 8.48321 -0.0813542 8.1587 0.244062C7.83419 0.569479 7.83419 1.09698 8.1587 1.4224L12.5573 5.83323L1.26705 5.83323C0.808332 5.83323 0.436035 6.20656 0.436035 6.66656C0.436035 7.12656 0.808332 7.4999 1.26705 7.4999L12.5573 7.4999L8.1587 11.9107C7.83419 12.2361 7.83419 12.7636 8.1587 13.0891C8.32116 13.252 8.53349 13.3332 8.74623 13.3332C8.95897 13.3332 9.1713 13.252 9.33376 13.0891L15.1509 7.25573C15.4754 6.93031 15.4754 6.40281 15.1509 6.0774Z" fill="white"/>
</svg>
